<?xml version="1.0" encoding="UTF-8" standalone="no"?><svg xmlns="http://www.w3.org/2000/svg" xmlns:xlink="http://www.w3.org/1999/xlink" fill="#000000" height="765.9" preserveAspectRatio="xMidYMid meet" version="1" viewBox="17.0 17.0 765.9 765.9" width="765.9" zoomAndPan="magnify"><g id="change1_1"><path d="M208.465,393.386c1.626-47.936,20.852-91.4,51.423-124.145L124.526,133.879 C59.364,201.317,18.74,292.611,17.034,393.386H208.465z" fill="#161616"/></g><g id="change2_1"><path d="M406.614,17.034v191.431c47.936,1.626,91.4,20.852,124.145,51.423l135.363-135.363 C598.683,59.364,507.389,18.74,406.614,17.034z" fill="#4db95f"/></g><g id="change3_1"><path d="M269.242,259.888c32.745-30.572,76.209-49.797,124.145-51.423V17.034 c-100.775,1.707-192.07,42.33-259.507,107.492L269.242,259.888z" fill="#fccf19"/></g><g id="change4_1"><path d="M259.888,530.758c-30.572-32.744-49.797-76.209-51.423-124.145H17.034 c1.707,100.775,42.33,192.07,107.492,259.507L259.888,530.758z" fill="#ec2b2b"/></g><g id="change2_2"><path d="M393.386,591.535c-47.936-1.626-91.4-20.852-124.145-51.423L133.879,675.474 c67.438,65.162,158.732,105.785,259.507,107.492V591.535z" fill="#4db95f"/></g><g id="change4_2"><path d="M540.112,269.242c30.572,32.744,49.797,76.209,51.423,124.145h191.431 c-1.707-100.775-42.33-192.07-107.492-259.507L540.112,269.242z" fill="#ec2b2b"/></g><g id="change3_2"><path d="M530.758,540.112c-32.745,30.572-76.209,49.797-124.145,51.423v191.431 c100.775-1.707,192.07-42.33,259.507-107.492L530.758,540.112z" fill="#fccf19"/></g><g id="change1_2"><path d="M591.535,406.614c-1.626,47.936-20.852,91.4-51.423,124.145l135.363,135.363 c65.162-67.438,105.785-158.732,107.492-259.507H591.535z" fill="#161616"/></g></svg>