<?xml version="1.0" encoding="utf-8"?>
<!-- Generator: Adobe Illustrator 19.1.0, SVG Export Plug-In . SVG Version: 6.00 Build 0)  -->
<svg version="1.1" id="Layer_1" xmlns="http://www.w3.org/2000/svg" xmlns:xlink="http://www.w3.org/1999/xlink" x="0px" y="0px"
	 viewBox="0 0 135.1 138.5" style="enable-background:new 0 0 135.1 138.5;" xml:space="preserve">
<style type="text/css">
	.st0{fill:#FFFFFF;}
</style>
<g>
	<g>
		<path class="st0" d="M110.5,138.5H5.5c-3,0-5.5-2.5-5.5-5.5V25c0-3,2.5-5.5,5.5-5.5h124c3,0,5.5,2.5,5.5,5.5v88.5
			c0,3-2.3,5.4-5.3,5.5l-13.5,0.5l-0.2,13.5C116,136.1,113.5,138.5,110.5,138.5z M11,127.5h94.1l0.2-13.3c0-2.9,2.4-5.3,5.3-5.4
			l13.5-0.5V30.5H11V127.5z"/>
	</g>
	<g>
		<rect x="9" y="56.5" class="st0" width="124" height="11"/>
	</g>
	<g>
		<g>
			<path class="st0" d="M35.5,38c-3,0-5.5-2.5-5.5-5.5v-27c0-3,2.5-5.5,5.5-5.5S41,2.5,41,5.5v27C41,35.5,38.5,38,35.5,38z"/>
		</g>
		<g>
			<path class="st0" d="M67.5,38c-3,0-5.5-2.5-5.5-5.5v-27c0-3,2.5-5.5,5.5-5.5c3,0,5.5,2.5,5.5,5.5v27C73,35.5,70.5,38,67.5,38z"/>
		</g>
		<g>
			<path class="st0" d="M99.5,38c-3,0-5.5-2.5-5.5-5.5v-27c0-3,2.5-5.5,5.5-5.5s5.5,2.5,5.5,5.5v27C105,35.5,102.5,38,99.5,38z"/>
		</g>
	</g>
	<g>
		
			<rect x="115.4" y="108" transform="matrix(0.7071 0.7071 -0.7071 0.7071 122.1124 -49.5555)" class="st0" width="11" height="29.3"/>
	</g>
</g>
</svg>
