<?xml version="1.0" encoding="utf-8"?>
<!-- Generator: Adobe Illustrator 24.1.1, SVG Export Plug-In . SVG Version: 6.00 Build 0)  -->
<svg version="1.1" id="Capa_1" xmlns="http://www.w3.org/2000/svg" xmlns:xlink="http://www.w3.org/1999/xlink" x="0px" y="0px"
	 viewBox="0 0 180 39" style="enable-background:new 0 0 180 39;" xml:space="preserve">
<style type="text/css">
	.st0{fill:#FFFFFF;}
	.st1{fill:#FBD015;}
	.st2{fill:#05569E;}
	.st3{fill:#D11F3E;}
</style>
<g id="Grupo_7239" transform="translate(-8996.893 373.838)">
	<g id="Grupo_7237" transform="translate(8996.893 -371.893)">
		<path id="Trazado_2295" class="st0" d="M38.6,12.7l-1.9,0.7L36.5,14l-0.4,0.3c0-0.8-0.1-1.5-0.2-2.2h0.7l1.3-1.6L36,11.2l-0.2,0.5
			L34,13.2c0.1,0.8,0.1,1.6,0.1,2.4l0.4-0.3c0.2,7.6-3.3,10.4-3.3,10.4c-0.4-0.2-0.8-0.4-1.1-0.7c3.2-3.5,3-8.6,3-8.8l-0.3,0.2
			c0.1-0.8,0.1-1.6,0.1-2.4l-0.6,0.5c0-0.5,0-1-0.1-1.3c0.4,0,0.7-0.1,1-0.2c0.3-0.3,0.5-0.8,0.5-1.2c0.1-0.3,0-0.4-0.2-0.5
			c-0.2-0.2-0.5-0.4-0.7-0.6c0,0,0.3-0.1,1,0.2c0.8,0.4,1.3,0.2,2-0.8L35,10.2l0.1-0.5c0,0,0,0,0,0c0.2,0.1,0.4,0.2,0.7,0.2
			c0.2,0,0.2,0,0.3,0.1c0.1,0.1,0.2,0.1,0.3,0.1c0,0,0.4,0.2,0.6,0c0.1,0.1,0.2,0.1,0.2,0.1c0.1,0.1,0.3,0.1,0.4,0.1
			c0.1,0,0.2,0,0.3,0.1c0.3,0.2,0.5,0.1,0.5,0c0-0.1-0.2-0.3-0.3-0.4c-0.1-0.1-0.2-0.1-0.3-0.2c0.1,0,0-0.1-0.1-0.2
			c-0.1-0.1-0.3-0.2-0.5-0.3c0-0.1-0.4-0.4-0.6-0.5c-0.2-0.2-0.2-0.2-0.4-0.4c-0.6-0.6-1.3-1.1-2-1.6c-1.1-0.8-2.2-1.5-3.5-2
			c-0.8-0.4-1.8-0.4-2.7,0c-0.4,0.2-0.5,0.7-0.3,1.1c0.1,0.3,0.2,0.6,0.4,0.9c0.1,0.2,0,0.2,0,0.2c-0.1,0,0,0.1-0.1,0.1
			s-0.1,0.1-0.2,0.1c-0.1,0.1-0.2,0.1-0.2,0.1c0-0.1,0-0.1,0-0.2c-0.1,0-0.2-0.1-0.2-0.1c0,0,0.1-0.1,0.1-0.1c-0.1,0-0.2,0-0.3,0
			C27.3,7,27.3,7,27.3,7c-0.2,0-0.3,0-0.4,0.2c-0.1-0.1-0.2-0.2-0.3-0.3c-0.1-0.1-0.2-0.2-0.3-0.4c0.1-0.1,0.1-0.2,0-0.3
			c-0.1-0.1-0.2-0.2-0.4-0.3c0.1,0,0.1-0.1,0.1-0.2c0-0.1-0.1-0.2-0.2-0.1c-0.1,0-0.2,0.1-0.3,0.1c-0.1,0-0.1,0-0.2,0
			c0.2-0.4,0-0.8-0.4-1c-0.8-0.4-1.8-0.4-2.7,0c-1.2,0.5-2.4,1.2-3.5,2c-0.7,0.5-1.3,1-2,1.6c-0.2,0.3-0.2,0.2-0.4,0.4
			c-0.2,0.2-0.6,0.4-0.6,0.5c-0.2,0.1-0.3,0.2-0.5,0.3c-0.1,0.1-0.1,0.2-0.1,0.2c-0.1,0-0.2,0.1-0.3,0.2c-0.2,0.2-0.4,0.4-0.3,0.4
			c0,0.1,0.2,0.2,0.5,0c0.1,0,0.2-0.1,0.3-0.1c0.2,0,0.3-0.1,0.4-0.1c0.1,0,0.2-0.1,0.2-0.1c0.2,0.2,0.6,0,0.6,0
			c0.1,0,0.2,0,0.3-0.1c0.1-0.1,0.1,0,0.3-0.1c0.2-0.1,0.5-0.1,0.7-0.2l0,0l0.1,0.5L17.3,10c0.6,1,1.2,1.1,2,0.8
			c0.7-0.3,1-0.2,1-0.2c-0.2,0.2-0.5,0.4-0.7,0.6c-0.2,0.1-0.2,0.2-0.2,0.5c0.1,0.5,0.2,0.8,0.5,1.2c0.3,0.2,0.7,0.3,1,0.2
			c0,0.3-0.1,0.7-0.1,1.3L20.3,14c0,0.8,0,1.6,0.1,2.4l-0.3-0.2c0,0.2-0.2,5.3,3,8.8c-0.3,0.3-0.7,0.5-1.1,0.7c0,0-3.5-2.9-3.3-10.4
			l0.4,0.3c0-0.8,0-1.6,0.1-2.4l-1.8-1.4l-0.2-0.5l-1.9-0.8l1.3,1.6h0.7c-0.2,0.7-0.2,1.5-0.2,2.2l-0.4-0.3l-0.2-0.5l-1.8-0.7
			l1.4,1.5l0.7,0c0,0-0.7,6.7,1.6,10.4c1.9,3,4.7,3,7.2,1.3c-0.3,1-0.8,1.9-1.2,2.8c0.3,0,0.7,0,1,0.1c0,0-0.1,0.5-0.2,0.6
			c-0.1,0.1,0,0.4,0.2,0.4c0.2,0,0.6,0,0.6,0s-0.1,0.3-0.1,0.5c0,0.2,0,0.3,0.9,0.4c0.9,0,0.9-0.1,0.9-0.4c0-0.2-0.1-0.5-0.1-0.5
			s0.3,0,0.6,0c0.3,0,0.3-0.2,0.2-0.4c-0.1-0.1-0.2-0.6-0.2-0.6c0.3-0.1,0.7-0.1,1-0.1c-0.5-0.9-0.9-1.8-1.2-2.8
			c2.5,1.7,5.3,1.7,7.2-1.3c2.3-3.6,1.6-10.4,1.6-10.4l0.7,0L38.6,12.7z M27.7,10.1c0.1-0.3,0.2-0.6,0.2-0.6c0.1,0.1,0.2,0.1,0.2,0
			c0-0.1,0.1-0.1,0.1,0c0,0.1,0.2,0.2,0.4-0.1c0.2-0.2,0.1-0.1,0.2,0c0,0.1,0.2,0.1,0.3,0c0.1-0.1,0.2-0.2,0.3-0.2
			c0.1,0,0.1,0,0.2-0.1C29.5,9.1,29.6,9,29.6,9c0-0.1-0.1-0.1,0-0.2c0.1,0,0.1-0.1,0.2,0c0.1,0,0.1,0,0.1,0c0,0,0.1,0.1,0.1,0
			c0,0,0,0,0,0c0.1-0.1,0.1-0.1,0.2,0s0.2,0.1,0.2,0.1s0.1-0.1,0.1,0c0.1,0.1,0.2,0.2,0.3,0.1c0,0,0.1,0.2,0.3,0.2
			c0.2,0,0.2-0.1,0.2-0.2s-0.1-0.5,0.1-0.4c0.1,0.1,0.1,0,0.1,0c0-0.1,0.1,0,0.1,0c0.1,0,0-0.1,0.1,0c0.1,0.1,0.1,0.1,0.2,0.2
			c0.1,0,0.2,0.1,0.2,0.2c0.1,0.1,0.2,0.2,0.3,0.1c0,0,0.1,0.1,0.2,0.1c0,0,0.2,0.2,0.3,0.2c0.1,0,0.2,0.1,0.3,0.1
			c0.1,0,0.1-0.1,0.1,0c0,0,0-0.1,0.1,0s0.2,0.2,0.3,0.2c0.1,0.1,0.2,0.1,0.3,0.2c0.2,0,0.2,0.1,0.2,0.1c0,0,0,0,0.1,0
			c0.1,0.1,0.2,0.1,0.3,0.1c0.1,0,0.1,0,0.2,0c0,0,0.1,0,0.1,0c-0.2,0.3-0.7,0.5-1.1,0.3c-0.7-0.2-0.9-0.1-1.1,0
			c-0.2,0.2-0.4,0.5-0.5,0.8c-0.1,0.3,0,0.5,0.5,1.1c-0.5,0-1.1-0.1-1.6-0.2c-0.8-0.3-1.8-0.3-2.6,0c-0.2,0.1-0.3,0.1-0.4,0.2
			c-0.1-0.1-0.3-0.3-0.4-0.5c0-0.2,0.1-0.3,0.1-0.5c0-0.1,0-0.2-0.1-0.4C27.6,10.5,27.6,10.3,27.7,10.1L27.7,10.1z M31.3,13.1
			c-0.6,0.4-1.4,0.6-2.1,0.5c-0.6,0-1.2-0.1-1.8-0.4c0.5-0.3,1.1-0.5,1.7-0.5c0.7,0,1.3,0.1,1.9,0.3L31.3,13.1z M27.1,11.7
			L27.1,11.7c0.1,0.1,0.3,0.1,0.4,0.1c0.2,0.1,0.3,0.2,0.4,0.4c-0.2,0.1-0.5,0.3-0.7,0.5c-0.1-0.2-0.1-0.5-0.1-0.7
			C27.1,11.8,27.1,11.7,27.1,11.7L27.1,11.7z M25.9,6.9C26,7,26.1,7.1,26.2,7.2c0,0.1,0,0.1,0.1,0.2c-0.1,0-0.2,0-0.3,0
			c-0.1-0.2-0.3-0.4-0.5-0.5C25.6,6.8,25.8,6.8,25.9,6.9L25.9,6.9z M25,6.8C25,6.8,25,6.8,25,6.8c0.2,0.3,0.5,0.5,0.8,0.6
			c0,0-0.1,0-0.1,0.1c-0.2,0-0.3-0.1-0.5-0.1c-0.1-0.1-0.1-0.2-0.2-0.1c-0.1,0,0-0.1-0.1-0.1C25,7,24.9,7,25,6.8z M24.9,9.6
			c0,0.1,0.1,0.3,0.1,0.4c0,0,0,0.1-0.1,0.1c0-0.2-0.1-0.3-0.2-0.5C24.8,9.6,24.8,9.6,24.9,9.6z M20.4,12c0.5-0.6,0.6-0.8,0.5-1.1
			c-0.1-0.3-0.3-0.6-0.5-0.8c-0.2-0.2-0.4-0.2-1.1,0c-0.4,0.2-0.8,0-1.1-0.3c0,0,0.1,0,0.1,0c0.1,0,0.1,0,0.2,0c0.1,0,0.2,0,0.3-0.1
			c0.1-0.1,0.1,0,0.1,0c0,0,0.1,0,0.2-0.1c0.1,0,0.2-0.1,0.3-0.2c0.1,0,0.2-0.1,0.3-0.2c0.1-0.1,0.1,0,0.1,0c0,0,0.1,0,0.1,0
			c0.1,0,0.2,0,0.3-0.1c0.1,0,0.3-0.2,0.3-0.2c0.1,0,0.2-0.1,0.2-0.1c0.2,0.1,0.2,0,0.3-0.1c0.1-0.1,0.1-0.1,0.2-0.2
			c0.1,0,0.1-0.1,0.2-0.2c0.1-0.1,0.1,0,0.1,0s0.1-0.1,0.1,0c0,0.1,0,0.1,0.1,0c0.1-0.1,0.1,0.3,0.1,0.4s0.1,0.2,0.2,0.2
			S22.3,9,22.3,9c0.1,0,0.2,0,0.3-0.1c0-0.1,0.1-0.1,0.1,0c0,0.1,0.2,0,0.2-0.1c0.1-0.1,0.1,0,0.2,0c0,0,0.1,0.1,0.1,0c0,0,0,0,0,0
			c0-0.1,0.1,0,0.2,0c0.1,0,0.1,0,0.2,0c0.1,0,0,0.1,0,0.2s0.1,0.1,0.1,0.2c0.1,0.1,0.1,0.1,0.2,0.1c0.1,0.1,0.2,0.2,0.3,0.2
			c0.1,0.1,0.2,0.1,0.2,0l0,0c0,0.1,0,0.2,0.1,0.2l0,0c0,0,0.1-0.1,0.1-0.2c0,0.1,0.1,0,0.1,0.1c-0.2,0.4-0.2,0.8,0.1,1.2l0,0
			c0,0,0,0,0.1-0.1c0,0.2,0,0.3,0,0.5c-0.1,0.2-0.2,0.4-0.3,0.6c-0.8-0.3-1.7-0.3-2.5,0C21.5,11.9,21,12,20.4,12z M24.3,12.8
			c-0.1,0.3-0.2,0.6-0.4,0.9c-0.7,0-1.4-0.2-1.9-0.5l0.2-0.1c0.6-0.2,1.3-0.3,1.9-0.3C24.1,12.7,24.2,12.7,24.3,12.8z M21.3,13.2
			c0.1,0,0.2,0,0.2,0c0.6,0.6,1.5,0.9,2.4,0.8c1,0,1.9-0.3,2.7-0.8c0.8,0.6,1.7,0.9,2.7,0.8c0.9,0.1,1.7-0.2,2.4-0.8
			c0.1,0,0.2,0,0.2,0c0.1,1.4,0.1,2.9-0.2,4.3H21.4C21.2,16.1,21.2,14.7,21.3,13.2z M21.4,17.9h10.3c-0.1,1.3-0.5,2.5-1,3.6h-8.3
			C21.9,20.3,21.6,19.1,21.4,17.9L21.4,17.9z M26.6,26.3c-1.7-1.1-3.1-2.7-4-4.5h8C29.7,23.6,28.3,25.2,26.6,26.3L26.6,26.3z"/>
		<path id="Trazado_2296" class="st0" d="M28.5,17.3c0.2,0,0.3-0.1,0.5-0.2c0.1,0,0.2,0,0.2,0c0.3,0,0.5-0.2,0.7-0.5
			c0.1,0,0.2,0,0.4-0.1c0.2-0.2,0.4-0.5,0.3-0.8l0,0c0.2-0.2,0.2-0.6,0-0.8c0,0,0,0,0,0c0.1-0.1,0.1-0.2,0.1-0.2
			c0-0.2-0.2-0.3-0.4-0.3c-0.2,0-0.4,0.2-0.4,0.3l0,0c-0.1,0-0.1,0.1-0.2,0.1c-0.1,0.1-0.2,0.2-0.2,0.3c0,0-0.1,0-0.1,0
			c0,0-0.1,0.1-0.1,0.1c-0.1,0-0.1,0-0.2,0c-0.1,0-0.2,0-0.2,0.1c-0.2-0.1-0.3-0.2-0.5-0.2c-0.6,0.1-1,0.6-0.9,1.2
			C27.7,16.9,28.1,17.2,28.5,17.3L28.5,17.3z"/>
		<path id="Trazado_2297" class="st0" d="M22.6,15.9L22.6,15.9c0,0.3,0.1,0.6,0.3,0.8c0.1,0.1,0.2,0.1,0.4,0.1
			c0.1,0.3,0.4,0.4,0.7,0.5c0.1,0,0.2,0,0.2,0c0.2,0.1,0.3,0.2,0.5,0.2c0.6-0.1,1-0.6,0.9-1.2c-0.1-0.5-0.4-0.8-0.9-0.9
			c-0.2,0-0.3,0.1-0.5,0.2c-0.1,0-0.2-0.1-0.2-0.1c-0.1,0-0.1,0-0.2,0c0,0-0.1-0.1-0.1-0.1c0,0-0.1,0-0.1,0c0-0.1,0-0.2-0.1-0.3
			c-0.1,0-0.1-0.1-0.2-0.1l0,0c0-0.2-0.2-0.3-0.4-0.3c-0.2,0-0.4,0.1-0.4,0.3c0,0.1,0,0.2,0.1,0.2c0,0,0,0,0,0
			C22.4,15.2,22.4,15.6,22.6,15.9z"/>
		<path id="Trazado_2298" class="st0" d="M26.6,21.3l0.4-0.6L27,20.3l0.3,0.1c0,0.2,0.1,0.3,0.2,0.3c0.1,0,0.2,0,0.4,0l0.1-0.2
			c-0.1-0.1-0.2-0.2-0.4-0.3c0-0.6-0.1-1.2-0.3-1.8c-0.1-0.3-0.3-0.3-0.5-0.3c-0.4,0.1-0.7,0.3-1.1,0.5l-0.1,0.5l0.3,0
			c0,0-0.2,0.5-0.2,0.7c-0.1,0.2,0,0.2,0.1,0.2c0.2,0.1,0.3,0.1,0.5,0.2l-0.1,0.5L26.6,21.3z"/>
		<path id="Trazado_2299" class="st0" d="M25.6,15.6c0.2,0.9,0.7,1,1,1c0,0.2,0,0.4-0.1,0.5l0.3,0.2c0-0.3,0-0.6,0-0.9
			c0.7-0.1,0.8-1.1,0.8-1.1c-0.4,0.2-0.8,0.5-0.8,1c0-0.2-0.1-0.4-0.2-0.6c0.4-0.1,0.8-0.4,0.8-0.8c0-0.2-0.1-0.5-0.3-0.6l0.2-0.3
			l-0.3,0.1l-0.1-0.2l-0.2,0.2l-0.1-0.2l-0.2,0.2L26,13.8l0.1,0.2c-0.4,0.2-0.6,0.7-0.4,1.1c0.1,0.2,0.4,0.4,0.6,0.5
			c0.1,0.2,0.2,0.5,0.2,0.7C26.3,16,26,15.7,25.6,15.6z M26.5,15.6c-0.2,0-0.4-0.4-0.4-0.8c0-0.5,0.2-0.8,0.4-0.8
			c0.2,0,0.4,0.4,0.4,0.8C26.9,15.2,26.8,15.6,26.5,15.6L26.5,15.6z"/>
		<path id="Trazado_2300" class="st0" d="M27.3,22.9c-0.1-0.2-0.1-0.4,0-0.5h-1c-0.1,0.2-0.1,0.4,0,0.5H27.3z"/>
		<path id="Trazado_2301" class="st0" d="M26.3,24.2c-0.1,0.2-0.1,0.5,0,0.7h1c-0.1-0.2-0.1-0.5,0-0.7H26.3z"/>
		<path id="Trazado_2302" class="st0" d="M27.5,23.4l0.2-0.4h-1.6L26,22.9h-0.7l0.1,0.2h0.2l0.2,0.4H27.5z"/>
		<path id="Trazado_2303" class="st0" d="M27.5,25.1h-1.3l-0.1-0.2h-0.3l0.1,0.2l0.3,0.2h1.4l0.3-0.2l0-0.2h-0.2L27.5,25.1z"/>
	</g>
	<g id="Grupo_7238" transform="translate(9031.268 -369.948)">
		<g id="Grupo_4376">
			<path id="Trazado_2304" class="st0" d="M35.1,10c-1.5-1.4-3.5-2.2-5.6-2.2c-4.9,0-7.7,3.7-7.7,8.1c0,3.8,2.3,7.5,7.7,7.5
				c1.9,0,3.7-0.6,5.1-1.8v-4.2h-5.8v-3h8.9v8.5c-2.1,2.4-5,3.7-8.2,3.6c-7.6,0-10.9-5.1-10.9-10.6c0-6,3.8-11.1,10.9-11.1
				c2.9,0,5.6,1.1,7.7,3.1L35.1,10z"/>
			<path id="Trazado_2305" class="st0" d="M61.6,15.7c0,5.6-3.4,10.8-10.7,10.8s-10.7-5.3-10.7-10.8c0-6.3,4.4-11,10.7-11
				C58.2,4.8,61.6,10,61.6,15.7z M50.9,23.4c5.2,0,7.4-3.7,7.4-7.7c0-3.8-2.2-7.8-7.3-7.9c-4.8,0-7.4,3.4-7.4,7.9
				C43.6,19.4,45.8,23.4,50.9,23.4L50.9,23.4z"/>
			<path id="Trazado_2306" class="st0" d="M74.7,26.5h-3.6l-9-21.7H66l6.9,17.5l6.9-17.5h3.9L74.7,26.5z"/>
			<path id="Trazado_2307" class="st0" d="M85.9,24.3c0,1.2-1,2.2-2.2,2.2s-2.2-1-2.2-2.2s1-2.2,2.2-2.2
				C84.9,22.1,85.9,23.1,85.9,24.3z"/>
			<path id="Trazado_2308" class="st0" d="M107,23.4c-2.1,2.1-4.9,3.2-7.9,3.1c-7.6,0-11-5.2-11-10.7c0-5.5,3.6-11,11-11
				c2.9,0,5.6,1.1,7.7,3.2l-2.2,2.1c-1.4-1.4-3.4-2.2-5.4-2.1c-5.3,0-7.8,3.9-7.7,7.8c0,3.8,2.3,7.6,7.7,7.6c2.1,0,4.1-0.8,5.6-2.3
				L107,23.4z"/>
			<path id="Trazado_2309" class="st0" d="M131.1,15.7c0,5.6-3.4,10.8-10.7,10.8c-7.2,0-10.7-5.3-10.7-10.7
				c0-6.3,4.4-10.9,10.7-10.9C127.6,4.8,131.1,10.1,131.1,15.7z M120.4,23.4c5.2,0,7.3-3.7,7.3-7.6c0-3.8-2.2-7.8-7.3-7.9
				c-4.8,0-7.4,3.4-7.4,7.9C113.2,19.4,115.3,23.4,120.4,23.4L120.4,23.4z"/>
		</g>
	</g>
	<g id="Grupo_7236" transform="translate(9023.487 -373.838)">
		<rect id="Rectángulo_1847" x="17.6" y="4.3" class="st1" width="2.3" height="13"/>
		<rect id="Rectángulo_1848" x="17.6" y="17.3" class="st2" width="2.3" height="8.7"/>
		<rect id="Rectángulo_1849" x="17.6" y="26" class="st3" width="2.3" height="8.7"/>
	</g>
</g>
</svg>
